# xmcd CD database file
#
# Track frame offsets:
#	150
#	14188
#	39349
#	53753
#	72378
#	92115
#	109751
#	123930
#	139201
#	170403
#	206761
#	218917
#	241357
#	260590
#
# Disc length: 3673 seconds
#
# Revision: 0
# Processed by: cddbd v1.5.2PL0 Copyright (c) Steve Scherf et al.
# Submitted via: CDex 1.77
#
DISCID=d30e570e
DTITLE=Various Artist - Midnight Jazz CD2
DYEAR=2016
DGENRE=Jazz
TTITLE0=Stan Getz - Round Midnight
TTITLE1=Mark Murphy - Cantaloupe Island
TTITLE2=Silhouette - Come Away With Me
TTITLE3=Anne Hampton Callaway - Old Devil Moon
TTITLE4=Milt Jackson - Blues Mood
TTITLE5=Kymaera - Morning Dance
TTITLE6=Grupo Cabana - Once I Loved
TTITLE7=Chris Ingham - Have You Met Miss Jones?
TTITLE8=Bobby Hutcherson - Whisper Not
TTITLE9=John Coltrane - Wilbur Harden - Dial Africa - Take 2 (Master)
TTITLE10=Art Pepper - These Foolish Things
TTITLE11=Joanna Eden - The Nearness Of You
TTITLE12=The Brecon Brothers - Walk On By
TTITLE13=Miles Davis with Gil Evans - Summertime
EXTD=YEAR: 2016
EXTT0=
EXTT1=
EXTT2=
EXTT3=
EXTT4=
EXTT5=
EXTT6=
EXTT7=
EXTT8=
EXTT9=
EXTT10=
EXTT11=
EXTT12=
EXTT13=
PLAYORDER=
